<?xml version="1.0" encoding="UTF-8"?>
<!DOCTYPE svg PUBLIC "-//W3C//DTD SVG 1.1//EN" "http://www.w3.org/Graphics/SVG/1.1/DTD/svg11.dtd">
<svg xmlns="http://www.w3.org/2000/svg" version="1.1" width="512px" height="512px" style="shape-rendering:geometricPrecision; text-rendering:geometricPrecision; image-rendering:optimizeQuality; fill-rule:evenodd; clip-rule:evenodd" xmlns:xlink="http://www.w3.org/1999/xlink">
<g><path style="opacity:0.993" fill="#60bb47" d="M 232.5,3.5 C 324.774,-1.49475 399.607,31.8386 457,103.5C 484.588,141.37 501.088,183.703 506.5,230.5C 474.507,231.5 442.507,231.833 410.5,231.5C 410.5,247.167 410.5,262.833 410.5,278.5C 442.507,278.167 474.507,278.5 506.5,279.5C 495.219,366.543 451.886,432.043 376.5,476C 306.426,511.871 234.426,516.204 160.5,489C 78.4865,453.307 27.3198,391.807 7,304.5C -9.02067,205.871 20.4793,124.037 95.5,59C 135.73,27.2231 181.396,8.72309 232.5,3.5 Z"/></g>
<g><path style="opacity:1" fill="#fdfefd" d="M 229.5,111.5 C 277.602,106.627 312.435,125.627 334,168.5C 337.986,176.123 340.986,184.123 343,192.5C 344.565,198.201 342.732,202.367 337.5,205C 334.226,206.202 330.893,207.202 327.5,208C 272.173,216.61 216.839,225.11 161.5,233.5C 161.111,265.619 169.278,295.286 186,322.5C 214.1,362.978 251.6,375.478 298.5,360C 324.062,349.438 341.895,331.271 352,305.5C 353.194,304.57 354.527,303.903 356,303.5C 359.833,305 363.667,306.5 367.5,308C 368.081,308.893 368.415,309.893 368.5,311C 359.224,350.592 336.557,379.592 300.5,398C 266.056,411.191 231.39,411.858 196.5,400C 157.36,380.186 132.194,349.02 121,306.5C 117.777,292.607 115.111,278.607 113,264.5C 108.482,213.019 125.648,170.519 164.5,137C 173.61,130.11 183.61,124.777 194.5,121C 206.242,117.627 217.909,114.46 229.5,111.5 Z"/></g>
<g><path style="opacity:1" fill="#60bb48" d="M 215.5,134.5 C 248.614,131.104 269.78,145.437 279,177.5C 280.244,181.779 280.577,186.112 280,190.5C 275.979,194.399 271.145,196.566 265.5,197C 230.848,202.664 196.181,208.164 161.5,213.5C 162.031,186.284 172.364,163.784 192.5,146C 199.701,141.066 207.368,137.233 215.5,134.5 Z"/></g>
</svg>
